<?xml version="1.0" standalone="no"?>
<!DOCTYPE svg PUBLIC "-//W3C//DTD SVG 20010904//EN"
 "http://www.w3.org/TR/2001/REC-SVG-20010904/DTD/svg10.dtd">
<svg version="1.0" xmlns="http://www.w3.org/2000/svg"
 width="192.000000pt" height="192.000000pt" viewBox="0 0 192.000000 192.000000"
 preserveAspectRatio="xMidYMid meet">

<g transform="translate(0.000000,192.000000) scale(0.100000,-0.100000)"
fill="#000000" stroke="none">
<path d="M470 1190 c0 -39 1 -40 35 -40 l35 0 2 -232 3 -233 38 -3 37 -3 0
235 0 236 40 0 40 0 0 40 0 40 -115 0 -115 0 0 -40z"/>
<path d="M727 1188 c61 -468 67 -503 92 -506 13 -2 27 0 31 5 5 4 17 68 26
141 10 72 21 132 24 132 3 0 15 -62 25 -137 20 -138 20 -138 48 -141 16 -2 29
2 32 10 2 7 18 117 35 243 17 127 33 245 36 263 5 31 4 32 -30 32 -42 0 -40 3
-57 -155 -6 -66 -15 -123 -19 -128 -3 -4 -12 43 -19 105 -19 180 -19 178 -51
178 -31 0 -28 10 -51 -189 -15 -125 -22 -114 -41 59 l-13 125 -37 3 -36 3 5
-43z"/>
<path d="M1120 1195 c0 -33 2 -35 35 -35 33 0 35 2 35 35 0 33 -2 35 -35 35
-33 0 -35 -2 -35 -35z"/>
<path d="M1220 1190 l0 -40 40 0 40 0 0 -235 0 -235 40 0 40 0 0 235 0 235 35
0 c34 0 35 1 35 40 l0 40 -115 0 -115 0 0 -40z"/>
<path d="M1120 885 l0 -205 35 0 35 0 0 205 0 205 -35 0 -35 0 0 -205z"/>
</g>
</svg>
